<svg width="181" height="41" viewBox="0 0 181 41" fill="none" xmlns="http://www.w3.org/2000/svg">
<path d="M3.2007 15.6879C3.2007 13.8547 3.2007 12.0568 3.16553 10.2236H8.75803C8.82837 10.7524 8.96906 11.951 9.00424 12.7618C10.0594 11.2107 11.7829 9.73001 14.8781 9.73001C17.903 9.73001 19.5561 11.3164 20.2948 12.9733C21.561 11.2459 23.3548 9.73001 26.8369 9.73001C30.4949 9.73001 33.5198 12.0215 33.5198 17.4858V31.3758H27.7866V18.1909C27.7866 16.2519 27.0831 14.3835 24.6914 14.3835C22.2293 14.3835 21.2796 16.0052 21.2796 19.2485V31.3758H15.5112V18.4024C15.5112 16.2519 14.9836 14.4187 12.4864 14.4187C10.1298 14.4187 8.96906 15.8994 8.96906 19.5305V31.3758H3.2007V15.6879Z" fill="#353D46"/>
<path d="M55.1153 25.9114C55.1153 27.9561 55.2912 30.9174 55.3967 31.3757H49.8042C49.6284 30.9527 49.5228 29.8246 49.5228 29.2958C48.749 30.4944 47.3069 31.8693 43.5786 31.8693C38.4785 31.8693 36.3682 28.5202 36.3682 25.2416C36.3682 20.4119 40.202 18.1556 46.3925 18.1556H49.4173V16.8865C49.4173 15.3706 48.8897 13.8899 46.1462 13.8899C43.6841 13.8899 43.1214 14.9123 42.8752 16.4635H37.3178C37.5992 12.6913 39.9206 9.6595 46.3925 9.6595C52.0201 9.69475 55.1153 11.9157 55.1153 16.9923V25.9114ZM49.4173 21.7162H47.0607C43.5083 21.7162 42.2069 22.8091 42.2069 24.8538C42.2069 26.3697 43.1565 27.6741 45.2669 27.6741C48.9953 27.6741 49.4173 25.0653 49.4173 22.2803V21.7162Z" fill="#353D46"/>
<path d="M64.7184 19.1427C66.266 17.0275 69.0447 13.7489 71.964 10.1883H78.6469L71.2957 18.1909L79.3503 31.3758H72.7378L67.3915 21.963L64.6832 24.5718V31.3758H58.8093V1.51591H64.7184V19.1427Z" fill="#353D46"/>
<path d="M84.4503 22.0688C84.4503 24.7128 85.7869 27.2863 88.7062 27.2863C91.1683 27.2863 91.8366 26.2992 92.4345 25.0301H98.2733C97.5346 27.6036 95.2132 31.8693 88.6007 31.8693C81.6364 31.8693 78.6116 26.687 78.6116 21.117C78.6116 14.454 81.9882 9.69477 88.8117 9.69477C96.0222 9.69477 98.5195 14.9828 98.5195 20.2356C98.5195 20.9759 98.5195 21.4342 98.4491 22.0335H84.4503V22.0688ZM92.6104 18.4377C92.5752 15.9699 91.5904 13.89 88.7414 13.89C85.9627 13.89 84.8372 15.8289 84.591 18.4377H92.6104Z" fill="#353D46"/>
<path d="M101.369 39.4841V15.3001C101.369 13.5727 101.369 11.9157 101.333 10.1883H106.996C107.067 10.7524 107.207 12.0568 107.207 12.8323C108.122 11.2812 109.986 9.69476 113.327 9.69476C118.111 9.69476 121.734 13.7137 121.734 20.2356C121.734 27.7094 117.654 31.8341 112.554 31.8341C109.564 31.8341 108.016 30.7059 107.207 29.4721V39.4841H101.369ZM111.428 14.4188C108.122 14.4188 106.926 16.5692 106.926 20.8349C106.926 24.8891 108.016 27.2158 111.182 27.2158C114.277 27.2158 115.79 24.8186 115.79 20.5176C115.79 16.6045 114.242 14.4188 111.428 14.4188Z" fill="#13B5E8"/>
<path d="M141.959 25.9114C141.959 27.9561 142.134 30.9174 142.24 31.3757H136.647C136.472 30.9527 136.366 29.8246 136.366 29.2958C135.592 30.4944 134.15 31.8693 130.422 31.8693C125.322 31.8693 123.211 28.5202 123.211 25.2416C123.211 20.4119 127.045 18.1556 133.236 18.1556H136.261V16.8865C136.261 15.3706 135.733 13.8899 132.99 13.8899C130.527 13.8899 129.965 14.9123 129.718 16.4634H124.161C124.442 12.6913 126.764 9.65949 133.236 9.65949C138.863 9.69475 141.959 11.9157 141.959 16.9923V25.9114ZM136.225 21.7162H133.869C130.316 21.7162 129.015 22.8091 129.015 24.8538C129.015 26.3697 129.965 27.6741 132.075 27.6741C135.803 27.6741 136.225 25.0653 136.225 22.2803V21.7162Z" fill="#13B5E8"/>
<path d="M143.541 10.1883H146.812V4.47721H152.651V10.1883H156.801V14.595H152.651V25.0653C152.651 26.6518 153.143 27.2863 154.902 27.2863C155.218 27.2863 155.816 27.2863 156.203 27.2511V31.27C155.078 31.693 153.46 31.693 152.299 31.693C148.184 31.693 146.847 29.4721 146.847 25.7704V14.595H143.576V10.1883H143.541Z" fill="#13B5E8"/>
<path d="M164.75 1.51591V12.7266C165.665 11.3517 167.353 9.69476 170.8 9.69476C174.704 9.69476 177.87 12.0568 177.87 17.8031V31.3758H172.066V18.6492C172.066 15.8994 171.081 14.454 168.655 14.454C165.383 14.454 164.786 16.9218 164.786 20.1298V31.3758H158.912V1.51591H164.75Z" fill="#13B5E8"/>
</svg>
